<svg id="Capa_1" data-name="Capa 1" xmlns="http://www.w3.org/2000/svg" xmlns:xlink="http://www.w3.org/1999/xlink" viewBox="0 0 360.17 126.03"><defs><style>.cls-1{fill:url(#Degradado_sin_nombre_7);}.cls-2{fill:url(#Degradado_sin_nombre_7-2);}.cls-3{fill:url(#Degradado_sin_nombre_2);}.cls-4{fill:#3d4975;}</style><linearGradient id="Degradado_sin_nombre_7" x1="59.67" y1="49.2" x2="59.67" y2="148.62" gradientUnits="userSpaceOnUse"><stop offset="0.03" stop-color="#00c08b"/><stop offset="1" stop-color="#3d4975"/></linearGradient><linearGradient id="Degradado_sin_nombre_7-2" x1="174.66" y1="148.62" x2="174.66" y2="49.2" gradientTransform="translate(368.32 197.82) rotate(180)" xlink:href="#Degradado_sin_nombre_7"/><linearGradient id="Degradado_sin_nombre_2" x1="126.43" y1="35.28" x2="126.43" y2="161.3" xlink:href="#Degradado_sin_nombre_7"/></defs><path class="cls-1" d="M83.65,148.62a2.52,2.52,0,0,1-1.75-.7L35,103.22a6.07,6.07,0,0,1-.21-8.58L81.81,50a2.54,2.54,0,0,1,3.67,3.5l-47,44.65a1,1,0,0,0,0,1.43l46.86,44.7a2.53,2.53,0,0,1-1.74,4.36Z" transform="translate(-33.16 -35.28)"/><path class="cls-2" d="M169.68,49.2a2.52,2.52,0,0,1,1.75.7l46.86,44.7a6.07,6.07,0,0,1,.2,8.58l-47,44.65a2.53,2.53,0,1,1-3.66-3.49l47-44.65a1,1,0,0,0,0-1.43l-46.87-44.7a2.53,2.53,0,0,1,1.75-4.36Z" transform="translate(-33.16 -35.28)"/><path class="cls-3" d="M126.43,161.3a4.52,4.52,0,0,1-3.21-1.32L64.74,101.5a4.54,4.54,0,0,1,0-6.42L123.21,36.6a4.56,4.56,0,0,1,6.43,0l58.47,58.48a4.54,4.54,0,0,1,0,6.42L129.64,160A4.55,4.55,0,0,1,126.43,161.3Zm-57.74-63L126.43,156l57.73-57.74L126.43,40.55Z" transform="translate(-33.16 -35.28)"/><path class="cls-4" d="M229.16,148.3l1.38-20.77L232,86.76q0-2.46,0-7.26,6.16.1,10.52.1,2.74,0,8.46-.1c3.82-.06,6.53-.1,8.13-.1a60.68,60.68,0,0,1,13.69,1.31,22.05,22.05,0,0,1,7.71,3.38,25.07,25.07,0,0,1,6.24,6.33A28.16,28.16,0,0,1,290.87,99a44,44,0,0,1,1.56,11.79A45.88,45.88,0,0,1,289.55,127,32.47,32.47,0,0,1,281,139.86a28.35,28.35,0,0,1-12.77,6.8,70.24,70.24,0,0,1-15.78,1.64l-13.65-.1C237.87,148.2,234.68,148.23,229.16,148.3Zm9.45-6.76q6,.17,11.09.16c2.87,0,5.79-.15,8.78-.43a37.61,37.61,0,0,0,8-1.59,20.17,20.17,0,0,0,7-4.16,26.43,26.43,0,0,0,5.59-6.8,30.77,30.77,0,0,0,3.25-8.52,42.57,42.57,0,0,0,1.08-9.55A35.55,35.55,0,0,0,282,100.57a21.85,21.85,0,0,0-4.67-8.37,15.94,15.94,0,0,0-7.83-5,47.16,47.16,0,0,0-12-1.23q-9.15,0-16.73.15Z" transform="translate(-33.16 -35.28)"/><path class="cls-4" d="M342.59,140.28q-.6,2.78-1.18,7.06a66.07,66.07,0,0,1-8.14,1.64,57,57,0,0,1-6.88.43,36.84,36.84,0,0,1-11-1.52,18.73,18.73,0,0,1-8.35-5.26,22.42,22.42,0,0,1-5-8.59,34.1,34.1,0,0,1-1.51-10.24,34.59,34.59,0,0,1,2.78-13.93,22.56,22.56,0,0,1,8.4-10.11q5.6-3.67,14.21-3.68a27,27,0,0,1,8.51,1.34,16.6,16.6,0,0,1,6.76,4.06,18.4,18.4,0,0,1,4.16,6.73,25.4,25.4,0,0,1,1.46,8.74,20.43,20.43,0,0,1-.29,3.53H309.22c-.14,1.85-.2,3.26-.2,4.23a22.18,22.18,0,0,0,2.15,9.75,14.84,14.84,0,0,0,6.36,6.76,19.94,19.94,0,0,0,9.69,2.29Q333.54,143.51,342.59,140.28Zm-33-24h29.16a29.28,29.28,0,0,0-.39-4.93,14.66,14.66,0,0,0-1.27-3.66,10.32,10.32,0,0,0-2.52-3.27,10.91,10.91,0,0,0-3.82-2.12,15.31,15.31,0,0,0-4.82-.73,17.55,17.55,0,0,0-5.31.8,15.58,15.58,0,0,0-4.45,2.22,14.46,14.46,0,0,0-3.28,3.3,16,16,0,0,0-2,3.66A34,34,0,0,0,309.61,116.29Z" transform="translate(-33.16 -35.28)"/><path class="cls-4" d="M391.66,140.64c-.06.54-.23,1.53-.51,3s-.51,2.89-.71,4.3a47,47,0,0,1-6.87,1.16q-3.31.32-5.8.31a31.07,31.07,0,0,1-9.76-1.47,19.16,19.16,0,0,1-7.81-4.81,20.09,20.09,0,0,1-4.89-8.31,34.4,34.4,0,0,1-1.57-10.46,38.92,38.92,0,0,1,2.55-14.06,21.64,21.64,0,0,1,8-10.43q5.47-3.78,14.92-3.79A48.3,48.3,0,0,1,392.79,98q.29,4.29.54,7.06a59.47,59.47,0,0,0-7.59-2,30,30,0,0,0-5.43-.53,17.65,17.65,0,0,0-7.7,1.61,16.24,16.24,0,0,0-5.8,4.58,18.43,18.43,0,0,0-3.45,7.06,33.23,33.23,0,0,0-1.05,8.32A26.85,26.85,0,0,0,364,134a12.85,12.85,0,0,0,6,6.62,19.74,19.74,0,0,0,9.62,2.35A37.5,37.5,0,0,0,391.66,140.64Z" transform="translate(-33.16 -35.28)"/></svg>